<svg width="31" height="21" viewBox="0 0 31 21" preserveAspectRatio="xMidYMid meet" fill="none" xmlns="http://www.w3.org/2000/svg"><path d="M20.6667 20.6667H10.3333C4.65 20.6667 0 16.0167 0 10.3333C0 4.65 4.65 0 10.3333 0H20.6667C26.35 0 31 4.65 31 10.3333C31 16.0167 26.35 20.6667 20.6667 20.6667ZM10.3333 2.58333C6.07083 2.58333 2.58333 6.07083 2.58333 10.3333C2.58333 14.5958 6.07083 18.0833 10.3333 18.0833H20.6667C24.9292 18.0833 28.4167 14.5958 28.4167 10.3333C28.4167 6.07083 24.9292 2.58333 20.6667 2.58333H10.3333Z" fill="white"></path><path d="M20.6667 15.5003C17.825 15.5003 15.5 13.1753 15.5 10.3337C15.5 7.49199 17.825 5.16699 20.6667 5.16699C23.5083 5.16699 25.8333 7.49199 25.8333 10.3337C25.8333 13.1753 23.5083 15.5003 20.6667 15.5003ZM20.6667 7.75033C19.2458 7.75033 18.0833 8.91283 18.0833 10.3337C18.0833 11.7545 19.2458 12.917 20.6667 12.917C22.0875 12.917 23.25 11.7545 23.25 10.3337C23.25 8.91283 22.0875 7.75033 20.6667 7.75033Z" fill="#87E64B"></path></svg>