<svg width="178" height="41" viewBox="0 0 178 41" fill="none" xmlns="http://www.w3.org/2000/svg">
<g clip-path="url(#clip0_2240_151)">
<path d="M31.6006 16.6598H37.5426C42.3253 16.6598 45.6586 19.9207 45.6586 24.1236V24.1961C45.6586 28.3989 42.3977 31.6598 37.5426 31.6598H31.6006V16.6598ZM37.5426 28.6163C40.2963 28.6163 42.1079 26.8047 42.1079 24.1961V24.1236C42.1079 21.5149 40.2963 19.6308 37.5426 19.6308H35.0064V28.6163H37.5426Z" fill="#181818"/>
<path d="M48.5571 16.6598H60.0789V19.5584H51.9629V22.6018H59.1368V25.5004H51.9629V28.6163H60.2238V31.5149H48.6296L48.5571 16.6598Z" fill="#181818"/>
<path d="M62.1078 29.4134L64.1368 27.0946C65.5136 28.1815 66.9629 28.9062 68.7021 28.9062C70.0789 28.9062 70.876 28.3265 70.876 27.5294V27.4569C70.876 26.5873 70.2963 26.1526 67.8325 25.5728C64.789 24.7757 62.76 23.9786 62.76 21.0076V20.9352C62.76 18.254 64.9339 16.4424 68.1223 16.4424C70.2963 16.4424 72.2528 17.0946 73.7745 18.3265L72.0354 20.8627C70.731 19.9207 69.3542 19.4134 68.0499 19.4134C66.7455 19.4134 66.0934 19.9931 66.0934 20.7178V20.6453C66.0934 21.5873 66.7455 21.9497 69.3542 22.6018C72.4702 23.3989 74.1368 24.4859 74.1368 27.0221V27.0946C74.1368 30.0656 71.818 31.7323 68.5571 31.7323C66.2383 31.7323 63.9194 30.9352 62.1078 29.4134Z" fill="#181818"/>
<path d="M77.1803 16.6598H80.5137V31.5874H77.1803V16.6598Z" fill="#181818"/>
<path d="M83.7021 24.1236C83.7021 19.8482 87.0354 16.37 91.6731 16.37C94.4267 16.37 96.0209 17.0946 97.6151 18.4714L95.5137 21.0076C94.3542 20.0656 93.3397 19.4859 91.5281 19.4859C89.0644 19.4859 87.1803 21.5874 87.1803 24.1236V24.1961C87.1803 26.9497 89.0644 28.9787 91.818 28.9787C93.0499 28.9787 94.1368 28.6888 95.0064 28.0366V25.9352H91.6006V23.1091H98.1948V29.5584C96.6006 30.8627 94.4992 31.9497 91.6731 31.9497C86.8905 31.7323 83.7021 28.5439 83.7021 24.1236Z" fill="#181818"/>
<path d="M101.383 16.6598H104.499L111.601 25.7903V16.6598H114.861V31.5874H112.035L104.644 22.0946V31.5874H101.383V16.6598Z" fill="#181818"/>
<path d="M118.557 16.6598H125.514C127.47 16.6598 128.919 17.2395 129.934 18.1815C130.804 19.0511 131.238 20.2105 131.238 21.5873V21.6598C131.238 24.0511 129.934 25.5728 127.977 26.2975L131.673 31.5873H127.76L124.499 26.8047H124.427H121.818V31.5873H118.412V16.6598H118.557ZM125.296 23.8337C126.963 23.8337 127.832 22.9641 127.832 21.7323V21.6598C127.832 20.283 126.89 19.5583 125.224 19.5583H121.89V23.8337H125.296Z" fill="url(#paint0_linear_2240_151)"/>
<path d="M134.064 25.1381V16.5873H137.398V24.9931C137.398 27.4569 138.63 28.6163 140.659 28.6163C142.688 28.6163 143.919 27.3844 143.919 24.9931V16.5149H147.253V24.9207C147.253 29.4134 144.644 31.6598 140.586 31.6598C136.528 31.6598 134.064 29.4859 134.064 25.1381Z" fill="url(#paint1_linear_2240_151)"/>
<path d="M149.644 29.4134L151.673 27.0946C153.05 28.1815 154.499 28.9062 156.238 28.9062C157.615 28.9062 158.412 28.3265 158.412 27.5294V27.4569C158.412 26.5873 157.832 26.1526 155.369 25.5728C152.325 24.7757 150.296 23.9786 150.296 21.0076V20.9352C150.296 18.254 152.47 16.4424 155.659 16.4424C157.832 16.4424 159.789 17.0946 161.311 18.3265L159.572 20.8627C158.267 19.9207 156.89 19.4134 155.586 19.4134C154.282 19.4134 153.63 19.9931 153.63 20.7178V20.6453C153.63 21.5873 154.282 21.9497 156.89 22.6018C160.006 23.3989 161.673 24.4859 161.673 27.0221V27.0946C161.673 30.0656 159.354 31.7323 156.093 31.7323C153.847 31.7323 151.456 30.9352 149.644 29.4134Z" fill="url(#paint2_linear_2240_151)"/>
<path d="M164.572 16.6598H167.905V22.6018H174.064V16.6598H177.398V31.5873H174.064V25.6453H167.905V31.5873H164.572V16.6598Z" fill="url(#paint3_linear_2240_151)"/>
<path d="M12.4702 25.0656C12.3977 25.0656 12.3977 24.9932 12.4702 25.0656L12.1079 24.8482L12.0354 24.7758L3.48467 18.6888C3.48467 18.6888 3.41221 18.6888 3.41221 18.6163L3.26728 18.4714L3.19482 18.399H3.04989L0.586121 16.6598L5.44119 17.3845C5.65858 17.3845 5.73105 17.4569 5.94844 17.5294C6.0209 17.5294 6.16583 17.6018 6.16583 17.6018C6.38322 17.6743 6.45569 17.7468 6.60061 17.8192C6.74554 17.8917 6.818 17.9642 6.96293 18.0366C7.0354 18.1091 7.18032 18.1816 7.18032 18.254C7.25279 18.3265 7.32525 18.3265 7.39771 18.399C7.54264 18.4714 7.61511 18.5439 7.61511 18.6163C7.8325 18.8337 7.97742 19.0511 8.19482 19.1961L12.0354 24.6308L12.1079 24.7033L12.4702 25.0656Z" fill="#2AD2FF"/>
<path d="M12.4702 33.4714L12.1078 32.8917L12.0354 32.8192L0.658569 16.6598L3.12234 18.399L3.55712 18.6888L12.1078 24.7758H12.1803L12.4702 24.9932C12.4702 24.9932 12.5426 24.9932 12.5426 25.0656L12.9049 24.7758L24.4267 16.6598L12.8325 32.8917L12.76 32.9642L12.4702 33.4714Z" fill="url(#paint4_linear_2240_151)"/>
<path d="M12.4702 22.312L12.1079 21.7323L12.0354 21.6598L9.20932 17.7467L12.0354 18.3265H12.1079L12.4702 18.3989L12.8325 18.3265L15.5861 17.6743L12.8325 21.7323V21.8047L12.4702 22.312Z" fill="#2AD2FF"/>
<path d="M24.4992 16.5873L20.876 17.0946L19.4992 17.312C18.4122 17.4569 17.3977 18.0366 16.7455 18.9786L12.905 24.4859L12.8325 24.5584L12.4702 25.0656L12.905 24.6308L12.9774 24.5584L12.4702 25.0656L22.2528 18.1091L24.4992 16.5873Z" fill="#2AD2FF"/>
<path d="M14.2818 5.13806C14.2818 8.32647 8.77453 9.99313 8.77453 13.3989C8.70207 14.196 8.91946 14.9931 9.28178 15.7178C9.28178 15.7178 7.18033 13.6888 7.18033 11.5149C7.18033 9.34096 9.20931 6.08009 9.20931 6.08009C9.20931 7.52937 9.78902 7.96415 10.3687 8.03661H10.4412C11.0934 8.03661 11.4557 7.52937 11.4557 6.80473C11.4557 6.08009 10.6586 5.35545 10.6586 3.90618C10.6586 2.52937 12.3977 0.28299 12.3977 0.28299C13.6296 1.73226 14.2818 3.39893 14.2818 5.13806Z" fill="#2AF4FF"/>
<path d="M12.76 16.7323C11.0209 16.7323 9.71655 15.3555 9.71655 13.6888V13.6163C9.71655 9.92067 14.8615 9.55835 14.8615 4.55835C15.0064 4.77574 16.3832 6.6598 16.3832 8.68878C16.3832 11.225 13.9919 11.8772 13.9919 13.1091C13.9919 13.6163 14.2093 13.9786 14.9339 13.9786C15.0064 13.9786 15.0789 13.9786 15.1513 13.9062C16.5281 13.3265 17.4702 12.0221 17.5426 10.5004C17.5426 10.5728 18.2673 16.7323 12.76 16.7323Z" fill="#2AF4FF"/>
<path d="M15.0064 13.9786C15.0789 13.9786 15.1513 13.9786 15.2238 13.9062C14.4992 14.1236 11.818 14.7757 11.818 12.8917C11.818 10.5728 15.8035 10.0656 15.8035 8.10907C15.8035 6.87719 15.5136 5.64531 14.8615 4.55835C15.0064 4.77574 16.3832 6.6598 16.3832 8.68878C16.3832 11.225 13.9919 11.8772 13.9919 13.1091C14.0644 13.6163 14.3542 13.9786 15.0064 13.9786Z" fill="#2AD2FF"/>
<path d="M12.8325 6.44241C12.8325 8.254 10.5136 8.10908 10.3687 8.03661H10.5861C11.2383 8.03661 11.6006 7.52937 11.6006 6.80473C11.6006 6.08009 10.8035 5.35545 10.8035 3.90618C10.8035 2.52937 12.5426 0.28299 12.5426 0.28299C11.9629 1.22502 11.6731 2.23951 11.6006 3.254C11.6006 4.92067 12.8325 5.0656 12.8325 6.44241Z" fill="#2AD2FF"/>
<path d="M11.3832 38.1091L9.789 37.0221H11.7455L12.3977 35.0656L12.9774 37.0221H14.9339L13.3397 38.1091L13.9194 39.9932L12.3252 38.8337L10.6586 39.9932L11.3832 38.1091Z" fill="#2AD2FF"/>
<path d="M19.7165 38.1091L18.1223 37.0221H20.0789L20.731 35.0656L21.3108 37.0221H23.2673L21.6731 38.1091L22.2528 39.9932L20.6586 38.8337L18.9919 39.9932L19.7165 38.1091Z" fill="#2AD2FF"/>
<path d="M3.12234 38.1091L1.52814 37.0221H3.48466L4.13683 35.0656L4.71654 37.0221H6.67306L5.07886 38.1091L5.65857 39.9932L4.06437 38.8337L2.47017 39.9932L3.12234 38.1091Z" fill="#2AD2FF"/>
</g>
<defs>
<linearGradient id="paint0_linear_2240_151" x1="117.006" y1="0.210515" x2="178.021" y2="0.210515" gradientUnits="userSpaceOnUse">
<stop offset="0.73" stop-color="#2AF4FF"/>
<stop offset="0.884" stop-color="#2AF4FF"/>
</linearGradient>
<linearGradient id="paint1_linear_2240_151" x1="117.006" y1="0.210513" x2="178.021" y2="0.210513" gradientUnits="userSpaceOnUse">
<stop offset="0.73" stop-color="#2AF4FF"/>
<stop offset="0.884" stop-color="#2AF4FF"/>
</linearGradient>
<linearGradient id="paint2_linear_2240_151" x1="117.006" y1="0.21053" x2="178.021" y2="0.21053" gradientUnits="userSpaceOnUse">
<stop offset="0.73" stop-color="#2AF4FF"/>
<stop offset="0.884" stop-color="#2AF4FF"/>
</linearGradient>
<linearGradient id="paint3_linear_2240_151" x1="117.006" y1="0.210515" x2="178.021" y2="0.210515" gradientUnits="userSpaceOnUse">
<stop offset="0.73" stop-color="#2AF4FF"/>
<stop offset="0.884" stop-color="#2AF4FF"/>
</linearGradient>
<linearGradient id="paint4_linear_2240_151" x1="0.586106" y1="33.5018" x2="0.586106" y2="24.6076" gradientUnits="userSpaceOnUse">
<stop offset="0.73" stop-color="#2AF4FF"/>
<stop offset="0.884" stop-color="#2AF4FF"/>
</linearGradient>
<clipPath id="clip0_2240_151">
<rect width="176.739" height="40" fill="white" transform="translate(0.586121 0.210541)"/>
</clipPath>
</defs>
</svg>
