<svg width="179" height="27" viewBox="0 0 179 27" fill="none" xmlns="http://www.w3.org/2000/svg">
<path d="M10.9302 9.34938C10.9302 9.34938 9.45429 9.20382 9.45429 10.5172V16.3597H19.2031V18.1132C19.2031 18.1132 19.2336 18.9899 18.3162 18.9899H9.45429V26.5858H20.0866C20.0866 26.5858 26.5249 25.5906 26.5858 18.9899V9.34938H10.9302ZM26.2879 0H7.08818C0.145535 1.63496 0 7.33192 0 7.33192V26.5824H7.38606V9.05827C7.38606 7.56887 8.86191 7.30484 8.86191 7.30484H26.2879V0ZM51.6348 21.075C51.1271 21.4135 50.7547 21.6606 50.4907 21.8197C49.5429 22.4053 48.6425 22.8589 47.803 23.2177C46.5912 23.7153 45.5114 23.9624 44.5432 23.9624C41.2192 23.9624 38.4638 22.9469 36.2398 20.8922C34.0159 18.8375 32.9158 16.2683 32.9158 13.1541C32.9158 10.0399 33.9076 7.55871 35.9115 5.3483C37.9154 3.1379 40.3391 2.0547 43.2028 2.0547C44.3943 2.0547 45.6671 2.2578 46.9906 2.68769C48.7068 3.22929 50.0946 4.04169 51.1981 5.1012L49.2822 7.22021C48.4698 6.43151 47.4104 5.84252 46.1782 5.48371C45.2541 5.2129 44.242 5.0775 43.1182 5.0775C41.1142 5.0775 39.4184 5.88652 38.0745 7.49101C36.7307 9.11581 36.0503 11.0317 36.0503 13.2895C36.0503 15.5473 36.8187 17.3515 38.3622 18.8172C39.9024 20.2829 41.8624 21.0276 44.242 21.0276C45.2338 21.0276 46.2459 20.7128 47.2817 20.1035C48.1415 19.4502 48.5815 19.132 48.6019 19.1083V14.4844H42.1704L43.0945 11.597H51.6416V21.0716L51.6348 21.075ZM71.0614 15.4356C71.0614 17.6697 70.2693 19.6093 68.6817 21.2341C67.0942 22.8589 65.1376 23.695 62.8019 23.695C60.6423 23.695 58.7501 22.8826 57.1185 21.2815C55.4869 19.6804 54.6949 17.7408 54.6949 15.4593C54.6949 13.1778 55.4667 11.2619 57.0068 9.5931C58.547 7.92429 60.4426 7.11189 62.6666 7.11189C65.1342 7.11189 67.1382 7.9006 68.702 9.5017C70.2659 11.0588 71.058 13.0424 71.058 15.4356H71.0614ZM68.0419 15.4796C68.0419 13.9665 67.5342 12.6836 66.522 11.6444C65.5099 10.5849 64.2541 10.0636 62.7546 10.0636C61.3464 10.0636 60.1549 10.6052 59.163 11.6884C58.1712 12.7716 57.6872 14.0105 57.6872 15.4085C57.6872 16.8742 58.195 18.1165 59.1834 19.1557C60.1752 20.1949 61.4073 20.7331 62.9035 20.7331C64.2913 20.7331 65.4795 20.2152 66.495 19.176C67.5308 18.1368 68.0351 16.8979 68.0351 15.4762L68.0419 15.4796ZM90.2205 15.4356C90.2205 17.6697 89.4284 19.6093 87.8408 21.2341C86.2532 22.8589 84.2967 23.695 81.9611 23.695C79.8014 23.695 77.9092 22.8826 76.2776 21.2815C74.6495 19.6804 73.854 17.7408 73.854 15.4593C73.854 13.1778 74.6257 11.2619 76.1659 9.5931C77.7061 7.92429 79.6018 7.11189 81.8257 7.11189C84.2934 7.11189 86.2972 7.9006 87.8611 9.5017C89.425 11.0588 90.2171 13.0424 90.2171 15.4356H90.2205ZM87.2011 15.4796C87.2011 13.9665 86.6933 12.6836 85.6812 11.6444C84.6691 10.5849 83.4132 10.0636 81.9136 10.0636C80.5055 10.0636 79.314 10.6052 78.3222 11.6884C77.3304 12.7716 76.8463 14.0105 76.8463 15.4085C76.8463 16.8742 77.3541 18.1165 78.3459 19.1557C79.3343 20.1949 80.5699 20.7331 82.066 20.7331C83.4539 20.7331 84.642 20.2152 85.6575 19.176C86.6933 18.1368 87.1977 16.8979 87.1977 15.4762L87.2011 15.4796ZM107.948 23.238L105.172 23.6679V20.9836L104.576 21.6606C104.052 22.1515 103.459 22.561 102.813 22.8792C101.868 23.3159 100.836 23.5393 99.7966 23.5325C97.637 23.5325 95.7888 22.7438 94.2892 21.1393C92.7931 19.5382 92.045 17.6426 92.045 15.4322C92.045 13.2218 92.793 11.1908 94.2689 9.56602C95.7448 7.94122 97.549 7.12882 99.7086 7.12882C100.944 7.12882 102.021 7.33192 102.924 7.73812C103.564 8.03261 104.116 8.41512 104.576 8.88902C104.732 9.09212 104.884 9.31553 105.04 9.51863V2.48459L107.988 2.0547L107.944 23.238H107.948ZM105.348 15.6353C105.348 14.0579 104.82 12.7242 103.74 11.641C102.66 10.5341 101.449 9.99253 100.064 9.99253C98.5239 9.99253 97.2884 10.5104 96.3439 11.5496C95.4605 12.5414 95.0001 13.76 95.0001 15.1817C95.0001 16.7828 95.4638 18.1132 96.3879 19.1523C97.312 20.1915 98.4799 20.7094 99.9118 20.7094C101.344 20.7094 102.555 20.2355 103.656 19.2674C104.779 18.2722 105.351 17.057 105.351 15.6353H105.348ZM123.519 5.416H115.259V11.0317H121.667V13.9191H115.259V23.2143L112.044 23.6883V2.50829H122.879L123.519 5.41939V5.416ZM130.147 3.76751L128.163 6.27241L126.271 3.76751L128.275 1.2863L130.147 3.76751ZM129.551 23.238L126.599 23.6442V7.9683L129.551 7.51809V23.2414V23.238ZM142.874 7.35561L141.486 10.5578C141.304 10.5307 141.121 10.5138 140.935 10.5138C140.647 10.5138 140.363 10.5375 140.075 10.5815C139.787 10.6255 139.479 10.7406 139.151 10.8963C138.535 11.1671 138.007 11.7527 137.543 12.6328C137.032 13.6314 136.768 14.7383 136.771 15.8587V23.2143L133.823 23.6883V7.9683L136.554 7.4707V10.7406C136.906 10.1753 137.282 9.61341 137.634 9.0278C138.142 8.43881 138.734 8.0123 139.398 7.76181C139.75 7.62641 140.39 7.51471 141.358 7.42331C142.282 7.35561 142.813 7.31161 142.878 7.35561H142.874ZM164.853 23.238L161.901 23.6679V12.907C161.901 11.9118 161.681 11.1908 161.241 10.7406C160.801 10.287 160.141 10.0636 159.281 10.0636C158.245 10.0636 157.453 10.4935 156.925 11.3499C156.573 11.9355 156.374 12.5685 156.374 13.1981V23.2143L153.422 23.756V12.9713C153.422 12.0235 153.202 11.3025 152.782 10.8083C152.342 10.3107 151.77 10.0636 151.019 10.0636H150.731C149.695 10.0636 148.947 10.4935 148.483 11.3736C148.131 12.0269 147.955 12.863 147.955 13.8785V23.2177L144.895 23.7593V7.9683L147.647 7.4944V9.5017C147.955 9.0278 148.263 8.64191 148.551 8.3745C149.343 7.6298 150.267 7.2676 151.303 7.2676C152.471 7.2676 153.327 7.44701 153.923 7.8329C154.431 8.1477 154.915 8.7807 155.399 9.68111C156.411 8.08 157.843 7.2676 159.738 7.2676C161.634 7.2676 162.886 7.8329 163.766 8.9838C164.494 9.9316 164.846 11.3296 164.846 13.1575V23.2414L164.853 23.238ZM178.335 18.4787C178.335 19.9207 177.828 21.119 176.816 22.0431C175.803 22.9909 174.524 23.4411 172.984 23.4411C171.816 23.4411 170.78 23.1703 169.836 22.6287C168.888 22.0871 168.184 21.4778 167.72 20.7568L169.792 18.9086C169.944 19.1354 170.079 19.3148 170.208 19.4502C170.98 20.2389 171.904 20.6451 172.984 20.6451C173.732 20.6451 174.328 20.442 174.747 20.0595C175.187 19.677 175.387 19.1354 175.387 18.4347C175.387 17.646 174.879 17.1044 173.867 16.8099C171.863 16.2006 170.784 15.8621 170.628 15.7944C169.704 15.3205 169.04 14.8263 168.624 14.261C168.16 13.6077 167.92 12.7479 167.92 11.6444C167.92 10.2904 168.428 9.1632 169.416 8.25941C170.408 7.35561 171.596 6.9291 172.96 6.9291C173.996 6.9291 174.964 7.1559 175.847 7.6298C176.728 8.1037 177.367 8.59791 177.74 9.1869L175.976 11.1028C175.712 10.8388 175.424 10.5951 175.116 10.3818C174.412 9.88421 173.729 9.6371 173.092 9.6371C172.456 9.6371 171.968 9.7725 171.572 10.0433C171.109 10.3818 170.868 10.8794 170.868 11.5327C170.868 12.186 171.088 12.6362 171.552 12.9307C171.948 13.1778 172.784 13.4486 174.108 13.7431C175.428 14.0579 176.443 14.6029 177.168 15.3679C177.983 16.1803 178.335 17.1958 178.335 18.4821V18.4787Z" fill="#87AC70"/>
</svg>
